<?xml version="1.0" encoding="utf-8"?>
<!-- Generator: Adobe Illustrator 19.1.0, SVG Export Plug-In . SVG Version: 6.00 Build 0)  -->
<svg version="1.1" id="Layer_1" xmlns="http://www.w3.org/2000/svg" xmlns:xlink="http://www.w3.org/1999/xlink" x="0px" y="0px"
	 width="60px" height="60px" viewBox="-275 367 60 60" style="enable-background:new -275 367 60 60;" xml:space="preserve">
<style type="text/css">
	.st0{fill:#F2F2F2;}
	.st1{fill:#3D90CE;}
</style>
<title>Slice 1</title>
<desc>Created with Sketch.</desc>
<g id="Page-1">
	<g id="Group">
		<g>
			<path class="st0" d="M-245,367c-16.6,0-30,13.4-30,30s13.4,30,30,30s30-13.4,30-30S-228.4,367-245,367z M-245,419.3
				c-12.3,0-22.3-10-22.3-22.3c0-12.3,10-22.3,22.3-22.3c12.3,0,22.3,10,22.3,22.3C-222.7,409.3-232.7,419.3-245,419.3z"/>
			<path class="st1" d="M-245,367v7.7c12.3,0,22.3,10,22.3,22.3c0,12.3-10,22.3-22.3,22.3c-12.3,0-22.3-10-22.3-22.3
				c0-3.9,1-7.6,2.8-10.8l-7-3.2c-2.2,4.2-3.5,8.9-3.5,14c0,16.6,13.4,30,30,30s30-13.4,30-30S-228.5,367-245,367z"/>
		</g>
		<path id="_x38_3_x25_" d="M-253.5,395.4c0.3-0.3,0.5-0.7,0.5-1.2c0-0.4-0.2-0.7-0.5-1.1c-0.3-0.3-0.8-0.5-1.4-0.5
			c-0.6,0-1.1,0.2-1.4,0.5c-0.3,0.3-0.4,0.7-0.4,1.1c0,0.5,0.2,0.9,0.5,1.2s0.8,0.4,1.3,0.4C-254.3,395.9-253.8,395.7-253.5,395.4
			L-253.5,395.4z M-253.3,400.6c0.4-0.3,0.6-0.8,0.6-1.5c0-0.7-0.2-1.2-0.6-1.5c-0.4-0.4-0.9-0.5-1.6-0.5c-0.6,0-1.1,0.2-1.5,0.5
			c-0.4,0.4-0.6,0.9-0.6,1.5c0,0.5,0.2,1,0.5,1.4s0.9,0.6,1.7,0.6C-254.2,401.1-253.7,400.9-253.3,400.6L-253.3,400.6z
			 M-257.5,395.8c-0.4-0.4-0.6-0.9-0.6-1.5c0-0.8,0.3-1.5,0.8-2s1.4-0.8,2.4-0.8c1,0,1.8,0.3,2.4,0.8c0.6,0.5,0.9,1.1,0.9,1.9
			c0,0.7-0.2,1.2-0.5,1.6c-0.2,0.2-0.5,0.5-0.9,0.7c0.4,0.2,0.8,0.4,1,0.7c0.5,0.5,0.7,1.1,0.7,1.9c0,0.9-0.3,1.7-0.9,2.3
			c-0.6,0.6-1.5,1-2.6,1c-1,0-1.9-0.3-2.6-0.8c-0.7-0.6-1.1-1.4-1.1-2.4c0-0.6,0.2-1.2,0.5-1.6s0.8-0.8,1.3-1
			C-257,396.2-257.3,396-257.5,395.8L-257.5,395.8z M-249.4,401.2c-0.6-0.7-0.8-1.5-0.8-2.5h1.4c0.1,0.7,0.2,1.2,0.4,1.5
			c0.3,0.6,1,0.8,1.9,0.8c0.7,0,1.2-0.2,1.7-0.6c0.4-0.4,0.6-0.8,0.6-1.4c0-0.7-0.2-1.2-0.7-1.5s-1.1-0.4-1.8-0.4
			c-0.1,0-0.2,0-0.3,0c-0.1,0-0.2,0-0.3,0V396c0.1,0,0.3,0,0.3,0c0.1,0,0.2,0,0.3,0c0.5,0,0.9-0.1,1.2-0.2c0.6-0.3,0.8-0.8,0.8-1.5
			c0-0.5-0.2-0.9-0.6-1.2c-0.4-0.3-0.8-0.4-1.3-0.4c-0.9,0-1.5,0.3-1.8,0.9c-0.2,0.3-0.3,0.8-0.3,1.4h-1.3c0-0.8,0.2-1.4,0.5-2
			c0.5-1,1.5-1.5,2.8-1.5c1.1,0,1.9,0.2,2.5,0.7c0.6,0.5,0.9,1.2,0.9,2.1c0,0.6-0.2,1.2-0.5,1.6c-0.2,0.2-0.5,0.4-0.8,0.6
			c0.6,0.2,1,0.4,1.3,0.9c0.3,0.4,0.5,1,0.5,1.6c0,1-0.3,1.8-1,2.4c-0.7,0.6-1.6,0.9-2.8,0.9C-248,402.2-248.9,401.9-249.4,401.2
			L-249.4,401.2z M-230.3,397.6c0.5,0.5,0.7,1.1,0.7,1.8s-0.2,1.3-0.7,1.8c-0.5,0.5-1.1,0.7-1.8,0.7c-0.7,0-1.3-0.2-1.8-0.7
			c-0.5-0.5-0.7-1.1-0.7-1.8s0.2-1.3,0.7-1.8c0.5-0.5,1.1-0.7,1.8-0.7C-231.4,396.9-230.8,397.1-230.3,397.6L-230.3,397.6z
			 M-233.1,391.5h0.8l-5.9,10.7h-0.8L-233.1,391.5z M-238.2,395.4c0.3-0.3,0.4-0.6,0.4-1.1c0-0.4-0.1-0.8-0.4-1.1s-0.7-0.4-1.1-0.4
			c-0.4,0-0.8,0.1-1.1,0.4c-0.3,0.3-0.4,0.6-0.4,1.1c0,0.4,0.1,0.8,0.4,1.1c0.3,0.3,0.6,0.4,1.1,0.4
			C-238.8,395.9-238.5,395.7-238.2,395.4L-238.2,395.4z M-237.4,392.5c0.5,0.5,0.7,1.1,0.7,1.8c0,0.7-0.2,1.3-0.7,1.8
			c-0.5,0.5-1.1,0.7-1.8,0.7c-0.7,0-1.3-0.2-1.8-0.7c-0.5-0.5-0.7-1.1-0.7-1.8c0-0.7,0.2-1.3,0.7-1.8c0.5-0.5,1.1-0.7,1.8-0.7
			C-238.5,391.8-237.9,392-237.4,392.5L-237.4,392.5z M-231,400.5c0.3-0.3,0.4-0.6,0.4-1.1s-0.1-0.8-0.4-1.1
			c-0.3-0.3-0.6-0.4-1.1-0.4c-0.4,0-0.8,0.1-1.1,0.4c-0.3,0.3-0.4,0.6-0.4,1.1s0.1,0.8,0.4,1.1c0.3,0.3,0.7,0.4,1.1,0.4
			C-231.7,400.9-231.3,400.8-231,400.5L-231,400.5z"/>
	</g>
</g>
</svg>
