<?xml version="1.0" encoding="UTF-8" standalone="no"?>
<svg width="60px" height="60px" viewBox="0 0 60 60" version="1.1" xmlns="http://www.w3.org/2000/svg" xmlns:xlink="http://www.w3.org/1999/xlink">
    <!-- Generator: Sketch 3.7.2 (28276) - http://www.bohemiancoding.com/sketch -->
    <title>Slice 1</title>
    <desc>Created with Sketch.</desc>
    <defs></defs>
    <g id="Page-1" stroke="none" stroke-width="1" fill="none" fill-rule="evenodd">
        <g id="graph">
            <g id="Group">
                <g>
                    <circle id="Oval" fill="#F2F2F2" cx="30" cy="30" r="30"></circle>
                    <path d="M30,0 L30,28.1 L3.5,16 C1.3,20.2 0,24.9 0,30 C0,46.6 13.4,60 30,60 C46.6,60 60,46.6 60,30 C60,13.4 46.5,0 30,0 L30,0 Z" id="Shape" fill="#3D90CE"></path>
                    <circle id="Oval" fill="#FFFFFF" cx="30" cy="30" r="22.3"></circle>
                </g>
                <path d="M21.4881173,28.3802967 C21.814914,28.0559388 21.97831,27.6693977 21.97831,27.2206618 C21.97831,26.8304567 21.8222303,26.4719612 21.5100662,26.1451645 C21.1979022,25.8183677 20.7223468,25.6549718 20.083386,25.6549718 C19.4493028,25.6549718 18.9908187,25.8183677 18.70792,26.1451645 C18.4250213,26.4719612 18.2835741,26.8548442 18.2835741,27.2938249 C18.2835741,27.7864588 18.46648,28.1717805 18.8322973,28.4498017 C19.1981145,28.7278228 19.6297724,28.8668313 20.1272839,28.8668313 C20.7077139,28.8668313 21.1613205,28.7046547 21.4881173,28.3802967 L21.4881173,28.3802967 Z M21.7258973,33.5602432 C22.1282963,33.2310077 22.3294928,32.7396005 22.3294928,32.086007 C22.3294928,31.4080257 22.1221994,30.8934505 21.7076065,30.5422659 C21.2930136,30.1910813 20.7613672,30.0154917 20.1126513,30.0154917 C19.4834456,30.0154917 18.9700897,30.1947395 18.5725683,30.5532404 C18.1750469,30.9117413 17.9762892,31.4080259 17.9762892,32.0421092 C17.9762892,32.5883963 18.1579757,33.0602935 18.5213542,33.4578149 C18.8847326,33.8553363 19.4468634,34.054094 20.2077633,34.054094 C20.8174587,34.054094 21.3234983,33.8894787 21.7258973,33.5602432 L21.7258973,33.5602432 Z M17.4787802,28.8229334 C17.0934527,28.4327283 16.9007918,27.9254693 16.9007918,27.3011412 C16.9007918,26.5207311 17.1836862,25.8500761 17.7494836,25.2891563 C18.315281,24.7282366 19.1176281,24.4477809 20.1565491,24.4477809 C21.1613272,24.4477809 21.9490419,24.7123847 22.5197168,25.2416003 C23.0903917,25.770816 23.3757249,26.3890379 23.3757249,27.0962846 C23.3757249,27.7498781 23.2098902,28.2790858 22.8782159,28.6839235 C22.6928685,28.913169 22.4050966,29.1375336 22.0148915,29.3570239 C22.4489947,29.557004 22.790419,29.7862461 23.0391747,30.0447569 C23.5025432,30.5325133 23.734224,31.166587 23.734224,31.9469972 C23.734224,32.8688567 23.4245034,33.6504745 22.8050528,34.2918741 C22.1856023,34.9332737 21.3100928,35.2539687 20.178498,35.2539687 C19.1590873,35.2539687 18.2969909,34.9771711 17.592183,34.4235676 C16.887375,33.8699642 16.5349764,33.0663977 16.5349764,32.0128439 C16.5349764,31.3933934 16.6861786,30.8580888 16.9885875,30.4069142 C17.2909964,29.9557396 17.7397255,29.6106572 18.3347883,29.3716565 C17.968971,29.2155745 17.6836378,29.0326686 17.4787802,28.8229334 L17.4787802,28.8229334 Z M25.5815919,34.218711 C25.0231109,33.5382909 24.7438746,32.7103369 24.7438746,31.7348242 L26.1193406,31.7348242 C26.1778714,32.4128055 26.3046861,32.9054321 26.4997887,33.2127186 C26.8412181,33.7638832 27.4582206,34.0394614 28.3508147,34.0394614 C29.0434288,34.0394614 29.5994626,33.8541168 30.0189331,33.483422 C30.4384036,33.1127272 30.6481356,32.6347331 30.6481356,32.0494255 C30.6481356,31.3275461 30.4274292,30.8227259 29.9860097,30.5349496 C29.5445902,30.2471734 28.9312458,30.1032874 28.1459581,30.1032874 C28.058162,30.1032874 27.9691478,30.1045068 27.8789128,30.1069456 C27.7886779,30.1093843 27.697225,30.1130425 27.6045513,30.11792 L27.6045513,28.954627 C27.741123,28.9692596 27.8557441,28.9790146 27.9484178,28.9838922 C28.0410915,28.9887698 28.14108,28.9912085 28.2483864,28.9912085 C28.7410203,28.9912085 29.145852,28.9131687 29.4628937,28.7570866 C30.0189359,28.4839431 30.2969528,27.996194 30.2969528,27.2938249 C30.2969528,26.7719256 30.1116082,26.3695327 29.7409134,26.086634 C29.3702186,25.8037353 28.9385607,25.6622881 28.4459268,25.6622881 C27.5679653,25.6622881 26.9607178,25.9549375 26.6241659,26.5402451 C26.4388185,26.8621643 26.3339525,27.3206484 26.3095646,27.9157111 L25.0072617,27.9157111 C25.0072617,27.135301 25.1633414,26.4719623 25.4755055,25.9256752 C26.0120374,24.9501625 26.9558318,24.4624135 28.3069169,24.4624135 C29.3751033,24.4624135 30.2018379,24.7001911 30.7871455,25.1757536 C31.3724531,25.651316 31.6651025,26.3402615 31.6651025,27.2426107 C31.6651025,27.8864491 31.4919516,28.4083406 31.1456446,28.8083008 C30.9310318,29.0570565 30.6530149,29.2521561 30.3115854,29.3936055 C30.8627501,29.5448099 31.2931886,29.83624 31.6029139,30.2679043 C31.9126392,30.6995687 32.0674995,31.227557 32.0674995,31.8518852 C32.0674995,32.8517857 31.7382689,33.6663265 31.0797979,34.2955322 C30.4213268,34.9247379 29.4872874,35.239336 28.2776517,35.239336 C27.0387505,35.239336 26.140073,34.8991311 25.5815919,34.218711 L25.5815919,34.218711 Z M44.7320297,30.6081127 C45.2295412,31.1056242 45.4782932,31.7055555 45.4782932,32.4079246 C45.4782932,33.1102937 45.2295412,33.7102251 44.7320297,34.2077365 C44.2345182,34.705248 43.6345869,34.954 42.9322178,34.954 C42.2249711,34.954 41.622601,34.705248 41.1250896,34.2077365 C40.6275781,33.7102251 40.3788261,33.1102937 40.3788261,32.4079246 C40.3788261,31.7055555 40.6275781,31.1056242 41.1250896,30.6081127 C41.622601,30.1106012 42.2249711,29.8618492 42.9322178,29.8618492 C43.6345869,29.8618492 44.2345182,30.1106012 44.7320297,30.6081127 L44.7320297,30.6081127 Z M41.871353,24.5209439 L42.6834633,24.5209439 L36.8231001,35.2320197 L36.0109898,35.2320197 L41.871353,24.5209439 Z M36.8194419,28.409562 C37.1145345,28.1144694 37.2620786,27.759632 37.2620786,27.3450391 C37.2620786,26.9304462 37.1145345,26.5756088 36.8194419,26.2805162 C36.5243494,25.9854236 36.1670732,25.8378795 35.7476027,25.8378795 C35.3330098,25.8378795 34.9781724,25.9842042 34.6830798,26.276858 C34.3879872,26.5695118 34.2404432,26.9255686 34.2404432,27.3450391 C34.2404432,27.759632 34.3879872,28.1144694 34.6830798,28.409562 C34.9781724,28.7046546 35.3330098,28.8521986 35.7476027,28.8521986 C36.1670732,28.8521986 36.5243494,28.7046546 36.8194419,28.409562 L36.8194419,28.409562 Z M37.554731,25.541569 C38.0522424,26.0415192 38.3009944,26.6426699 38.3009944,27.3450391 C38.3009944,28.0474082 38.0522424,28.6473395 37.554731,29.144851 C37.0572195,29.6423624 36.4548494,29.8911145 35.7476027,29.8911145 C35.0452336,29.8911145 34.4453023,29.6423624 33.9477908,29.144851 C33.4502793,28.6473395 33.2015273,28.0474082 33.2015273,27.3450391 C33.2015273,26.6426699 33.4502793,26.0415192 33.9477908,25.541569 C34.4453023,25.0416187 35.0452336,24.7916474 35.7476027,24.7916474 C36.4548494,24.7916474 37.0572195,25.0416187 37.554731,25.541569 L37.554731,25.541569 Z M43.9967407,33.4724475 C44.2918333,33.1773549 44.4393773,32.8225175 44.4393773,32.4079246 C44.4393773,31.9933317 44.2918333,31.6384943 43.9967407,31.3434017 C43.7016481,31.0483091 43.3468107,30.900765 42.9322178,30.900765 C42.5127473,30.900765 42.1554712,31.0483091 41.8603786,31.3434017 C41.565286,31.6384943 41.4177419,31.9933317 41.4177419,32.4079246 C41.4177419,32.8225175 41.565286,33.1773549 41.8603786,33.4724475 C42.1554712,33.7675401 42.5127473,33.9150842 42.9322178,33.9150842 C43.3468107,33.9150842 43.7016481,33.7675401 43.9967407,33.4724475 L43.9967407,33.4724475 Z" id="83%" fill="#000000"></path>
            </g>
        </g>
    </g>
</svg>